# xmcd
#
# Track frame offsets: 
#        187
#        12167
#        27695
#        42005
#        55415
#        68882
#        86390
#        103852
#        116462
#        134415
#        146562
#        161915
#
# Disc length: 2310 seconds
#
# Revision: 2
# Processed by: cddbd v1.4PL0 Copyright (c) Steve Scherf et al.
# Submitted via: ExactAudioCopy v0.90b4
#
DISCID=a709040c
DTITLE=Foster and LLoyd - Version Of The Truth
DYEAR=1990
DGENRE=
TTITLE0=Is It Love?
TTITLE1=Can't Have Nothin'
TTITLE2=I Will Love You Anyhow
TTITLE3=Version Of The Truth
TTITLE4=Leavin' In Your Eyes
TTITLE5=Side Of The Road
TTITLE6=It's A Done Deal
TTITLE7=Take A Little Time For Love
TTITLE8=I Wishdaida Run Into You
TTITLE9=It's Over
TTITLE10=All Said And Done
TTITLE11=Whoa
EXTD=
EXTT0=
EXTT1=
EXTT2=
EXTT3=
EXTT4=
EXTT5=
EXTT6=
EXTT7=
EXTT8=
EXTT9=
EXTT10=
EXTT11=
PLAYORDER=
